<?xml version="1.0" encoding="UTF-8"?>
<svg id="Layer_1" xmlns="http://www.w3.org/2000/svg" viewBox="0 0 1500 1385.89">
  <defs>
    <style>
      .cls-1 {
        fill: #22273b;
      }
    </style>
  </defs>
  <path class="cls-1" d="M1268.47,1385.89c-143.88-181.92-289.41-325.8-474.64-469.68-155.46,183.57-352.26,329.11-608.6,453.14-57.88-115.77-92.61-165.38-185.23-261.3,214.99-82.69,385.34-190.19,535.83-334.07,153.8-147.19,254.69-294.38,332.42-486.22l-429.99,6.61c-142.23,3.31-195.15,6.62-262.95,16.54l-8.27-294.38c64.5,8.27,109.15,11.58,173.65,11.58,13.23,0,44.65,0,92.61-1.65l565.6-8.27c77.73-1.65,87.65-1.65,132.3-18.19l145.53,148.84c-24.81,24.81-34.73,41.35-59.54,97.57-87.65,206.73-150.5,322.49-243.11,446.53,200.11,143.88,267.91,201.76,525.91,448.18l-231.53,244.76Z"/>
</svg>